<mxfile host="app.diagrams.net" agent="Mozilla/5.0 (Windows NT 10.0; Win64; x64; rv:128.0) Gecko/20100101 Firefox/128.0" version="27.1.6">
  <diagram name="Page-1" id="38b20595-45e3-9b7f-d5ca-b57f44c5b66d">
    <mxGraphModel dx="1652" dy="1070" grid="1" gridSize="10" guides="1" tooltips="1" connect="1" arrows="1" fold="1" page="1" pageScale="1" pageWidth="1100" pageHeight="850" background="none" math="0" shadow="0">
      <root>
        <mxCell id="0" />
        <mxCell id="1" parent="0" />
        <mxCell id="T482StG7bbjqb7tH5dsQ-1" value="" style="rounded=0;whiteSpace=wrap;html=1;fillColor=none;strokeWidth=7;" vertex="1" parent="1">
          <mxGeometry x="330" y="430" width="2320" height="850" as="geometry" />
        </mxCell>
        <mxCell id="T482StG7bbjqb7tH5dsQ-2" value="" style="rounded=0;whiteSpace=wrap;html=1;" vertex="1" parent="1">
          <mxGeometry x="800" y="1120" width="160" height="80" as="geometry" />
        </mxCell>
        <mxCell id="T482StG7bbjqb7tH5dsQ-3" value="" style="rounded=0;whiteSpace=wrap;html=1;" vertex="1" parent="1">
          <mxGeometry x="960" y="1120" width="160" height="80" as="geometry" />
        </mxCell>
        <mxCell id="T482StG7bbjqb7tH5dsQ-4" value="" style="rounded=0;whiteSpace=wrap;html=1;" vertex="1" parent="1">
          <mxGeometry x="1120" y="1120" width="160" height="80" as="geometry" />
        </mxCell>
        <mxCell id="T482StG7bbjqb7tH5dsQ-5" value="" style="rounded=0;whiteSpace=wrap;html=1;" vertex="1" parent="1">
          <mxGeometry x="1280" y="1120" width="160" height="80" as="geometry" />
        </mxCell>
        <mxCell id="T482StG7bbjqb7tH5dsQ-6" value="" style="rounded=0;whiteSpace=wrap;html=1;" vertex="1" parent="1">
          <mxGeometry x="1440" y="1120" width="160" height="80" as="geometry" />
        </mxCell>
        <mxCell id="T482StG7bbjqb7tH5dsQ-7" value="" style="rounded=0;whiteSpace=wrap;html=1;" vertex="1" parent="1">
          <mxGeometry x="1600" y="1120" width="160" height="80" as="geometry" />
        </mxCell>
        <mxCell id="T482StG7bbjqb7tH5dsQ-8" value="" style="rounded=0;whiteSpace=wrap;html=1;" vertex="1" parent="1">
          <mxGeometry x="1760" y="1120" width="160" height="80" as="geometry" />
        </mxCell>
        <mxCell id="T482StG7bbjqb7tH5dsQ-9" value="" style="rounded=0;whiteSpace=wrap;html=1;" vertex="1" parent="1">
          <mxGeometry x="1920" y="1120" width="160" height="80" as="geometry" />
        </mxCell>
        <mxCell id="T482StG7bbjqb7tH5dsQ-10" value="" style="rounded=0;whiteSpace=wrap;html=1;" vertex="1" parent="1">
          <mxGeometry x="2080" y="1120" width="160" height="80" as="geometry" />
        </mxCell>
        <mxCell id="T482StG7bbjqb7tH5dsQ-11" value="" style="rounded=0;whiteSpace=wrap;html=1;" vertex="1" parent="1">
          <mxGeometry x="2240" y="1120" width="160" height="80" as="geometry" />
        </mxCell>
        <mxCell id="T482StG7bbjqb7tH5dsQ-12" value="" style="rounded=0;whiteSpace=wrap;html=1;" vertex="1" parent="1">
          <mxGeometry x="800" y="1040" width="160" height="80" as="geometry" />
        </mxCell>
        <mxCell id="T482StG7bbjqb7tH5dsQ-13" value="" style="rounded=0;whiteSpace=wrap;html=1;" vertex="1" parent="1">
          <mxGeometry x="960" y="1040" width="160" height="80" as="geometry" />
        </mxCell>
        <mxCell id="T482StG7bbjqb7tH5dsQ-14" value="" style="rounded=0;whiteSpace=wrap;html=1;" vertex="1" parent="1">
          <mxGeometry x="1120" y="1040" width="160" height="80" as="geometry" />
        </mxCell>
        <mxCell id="T482StG7bbjqb7tH5dsQ-15" value="" style="rounded=0;whiteSpace=wrap;html=1;" vertex="1" parent="1">
          <mxGeometry x="1280" y="1040" width="160" height="80" as="geometry" />
        </mxCell>
        <mxCell id="T482StG7bbjqb7tH5dsQ-16" value="" style="rounded=0;whiteSpace=wrap;html=1;" vertex="1" parent="1">
          <mxGeometry x="1440" y="1040" width="160" height="80" as="geometry" />
        </mxCell>
        <mxCell id="T482StG7bbjqb7tH5dsQ-17" value="" style="rounded=0;whiteSpace=wrap;html=1;" vertex="1" parent="1">
          <mxGeometry x="1600" y="1040" width="160" height="80" as="geometry" />
        </mxCell>
        <mxCell id="T482StG7bbjqb7tH5dsQ-18" value="" style="rounded=0;whiteSpace=wrap;html=1;" vertex="1" parent="1">
          <mxGeometry x="1760" y="1040" width="160" height="80" as="geometry" />
        </mxCell>
        <mxCell id="T482StG7bbjqb7tH5dsQ-19" value="" style="rounded=0;whiteSpace=wrap;html=1;" vertex="1" parent="1">
          <mxGeometry x="1920" y="1040" width="160" height="80" as="geometry" />
        </mxCell>
        <mxCell id="T482StG7bbjqb7tH5dsQ-20" value="" style="rounded=0;whiteSpace=wrap;html=1;" vertex="1" parent="1">
          <mxGeometry x="2080" y="1040" width="160" height="80" as="geometry" />
        </mxCell>
        <mxCell id="T482StG7bbjqb7tH5dsQ-21" value="" style="rounded=0;whiteSpace=wrap;html=1;" vertex="1" parent="1">
          <mxGeometry x="2240" y="1040" width="160" height="80" as="geometry" />
        </mxCell>
        <mxCell id="T482StG7bbjqb7tH5dsQ-22" value="" style="rounded=0;whiteSpace=wrap;html=1;" vertex="1" parent="1">
          <mxGeometry x="800" y="800" width="160" height="80" as="geometry" />
        </mxCell>
        <mxCell id="T482StG7bbjqb7tH5dsQ-23" value="" style="rounded=0;whiteSpace=wrap;html=1;" vertex="1" parent="1">
          <mxGeometry x="960" y="800" width="160" height="80" as="geometry" />
        </mxCell>
        <mxCell id="T482StG7bbjqb7tH5dsQ-24" value="" style="rounded=0;whiteSpace=wrap;html=1;" vertex="1" parent="1">
          <mxGeometry x="1120" y="800" width="160" height="80" as="geometry" />
        </mxCell>
        <mxCell id="T482StG7bbjqb7tH5dsQ-25" value="" style="rounded=0;whiteSpace=wrap;html=1;" vertex="1" parent="1">
          <mxGeometry x="1280" y="800" width="160" height="80" as="geometry" />
        </mxCell>
        <mxCell id="T482StG7bbjqb7tH5dsQ-26" value="" style="rounded=0;whiteSpace=wrap;html=1;" vertex="1" parent="1">
          <mxGeometry x="1440" y="800" width="160" height="80" as="geometry" />
        </mxCell>
        <mxCell id="T482StG7bbjqb7tH5dsQ-27" value="" style="rounded=0;whiteSpace=wrap;html=1;" vertex="1" parent="1">
          <mxGeometry x="1600" y="800" width="160" height="80" as="geometry" />
        </mxCell>
        <mxCell id="T482StG7bbjqb7tH5dsQ-28" value="" style="rounded=0;whiteSpace=wrap;html=1;" vertex="1" parent="1">
          <mxGeometry x="1760" y="800" width="160" height="80" as="geometry" />
        </mxCell>
        <mxCell id="T482StG7bbjqb7tH5dsQ-29" value="" style="rounded=0;whiteSpace=wrap;html=1;" vertex="1" parent="1">
          <mxGeometry x="1920" y="800" width="160" height="80" as="geometry" />
        </mxCell>
        <mxCell id="T482StG7bbjqb7tH5dsQ-30" value="" style="rounded=0;whiteSpace=wrap;html=1;" vertex="1" parent="1">
          <mxGeometry x="2080" y="800" width="160" height="80" as="geometry" />
        </mxCell>
        <mxCell id="T482StG7bbjqb7tH5dsQ-31" value="" style="rounded=0;whiteSpace=wrap;html=1;" vertex="1" parent="1">
          <mxGeometry x="2240" y="800" width="160" height="80" as="geometry" />
        </mxCell>
        <mxCell id="T482StG7bbjqb7tH5dsQ-32" value="" style="rounded=0;whiteSpace=wrap;html=1;" vertex="1" parent="1">
          <mxGeometry x="800" y="720" width="160" height="80" as="geometry" />
        </mxCell>
        <mxCell id="T482StG7bbjqb7tH5dsQ-33" value="" style="rounded=0;whiteSpace=wrap;html=1;" vertex="1" parent="1">
          <mxGeometry x="960" y="720" width="160" height="80" as="geometry" />
        </mxCell>
        <mxCell id="T482StG7bbjqb7tH5dsQ-34" value="" style="rounded=0;whiteSpace=wrap;html=1;" vertex="1" parent="1">
          <mxGeometry x="1120" y="720" width="160" height="80" as="geometry" />
        </mxCell>
        <mxCell id="T482StG7bbjqb7tH5dsQ-35" value="" style="rounded=0;whiteSpace=wrap;html=1;" vertex="1" parent="1">
          <mxGeometry x="1280" y="720" width="160" height="80" as="geometry" />
        </mxCell>
        <mxCell id="T482StG7bbjqb7tH5dsQ-36" value="" style="rounded=0;whiteSpace=wrap;html=1;" vertex="1" parent="1">
          <mxGeometry x="1440" y="720" width="160" height="80" as="geometry" />
        </mxCell>
        <mxCell id="T482StG7bbjqb7tH5dsQ-37" value="" style="rounded=0;whiteSpace=wrap;html=1;" vertex="1" parent="1">
          <mxGeometry x="1600" y="720" width="160" height="80" as="geometry" />
        </mxCell>
        <mxCell id="T482StG7bbjqb7tH5dsQ-38" value="" style="rounded=0;whiteSpace=wrap;html=1;" vertex="1" parent="1">
          <mxGeometry x="1760" y="720" width="160" height="80" as="geometry" />
        </mxCell>
        <mxCell id="T482StG7bbjqb7tH5dsQ-39" value="" style="rounded=0;whiteSpace=wrap;html=1;" vertex="1" parent="1">
          <mxGeometry x="1920" y="720" width="160" height="80" as="geometry" />
        </mxCell>
        <mxCell id="T482StG7bbjqb7tH5dsQ-40" value="" style="rounded=0;whiteSpace=wrap;html=1;" vertex="1" parent="1">
          <mxGeometry x="2080" y="720" width="160" height="80" as="geometry" />
        </mxCell>
        <mxCell id="T482StG7bbjqb7tH5dsQ-41" value="" style="rounded=0;whiteSpace=wrap;html=1;" vertex="1" parent="1">
          <mxGeometry x="2240" y="720" width="160" height="80" as="geometry" />
        </mxCell>
        <mxCell id="T482StG7bbjqb7tH5dsQ-42" value="" style="rounded=0;whiteSpace=wrap;html=1;" vertex="1" parent="1">
          <mxGeometry x="800" y="480" width="160" height="80" as="geometry" />
        </mxCell>
        <mxCell id="T482StG7bbjqb7tH5dsQ-43" value="" style="rounded=0;whiteSpace=wrap;html=1;" vertex="1" parent="1">
          <mxGeometry x="960" y="480" width="160" height="80" as="geometry" />
        </mxCell>
        <mxCell id="T482StG7bbjqb7tH5dsQ-44" value="" style="rounded=0;whiteSpace=wrap;html=1;" vertex="1" parent="1">
          <mxGeometry x="1120" y="480" width="160" height="80" as="geometry" />
        </mxCell>
        <mxCell id="T482StG7bbjqb7tH5dsQ-45" value="" style="rounded=0;whiteSpace=wrap;html=1;" vertex="1" parent="1">
          <mxGeometry x="1280" y="480" width="160" height="80" as="geometry" />
        </mxCell>
        <mxCell id="T482StG7bbjqb7tH5dsQ-46" value="" style="rounded=0;whiteSpace=wrap;html=1;" vertex="1" parent="1">
          <mxGeometry x="1440" y="480" width="160" height="80" as="geometry" />
        </mxCell>
        <mxCell id="T482StG7bbjqb7tH5dsQ-47" value="" style="rounded=0;whiteSpace=wrap;html=1;" vertex="1" parent="1">
          <mxGeometry x="1600" y="480" width="160" height="80" as="geometry" />
        </mxCell>
        <mxCell id="T482StG7bbjqb7tH5dsQ-48" value="" style="rounded=0;whiteSpace=wrap;html=1;" vertex="1" parent="1">
          <mxGeometry x="1760" y="480" width="160" height="80" as="geometry" />
        </mxCell>
        <mxCell id="T482StG7bbjqb7tH5dsQ-49" value="" style="rounded=0;whiteSpace=wrap;html=1;" vertex="1" parent="1">
          <mxGeometry x="1920" y="480" width="160" height="80" as="geometry" />
        </mxCell>
        <mxCell id="T482StG7bbjqb7tH5dsQ-50" value="" style="rounded=0;whiteSpace=wrap;html=1;" vertex="1" parent="1">
          <mxGeometry x="2080" y="480" width="160" height="80" as="geometry" />
        </mxCell>
        <mxCell id="T482StG7bbjqb7tH5dsQ-51" value="" style="rounded=0;whiteSpace=wrap;html=1;" vertex="1" parent="1">
          <mxGeometry x="2240" y="480" width="160" height="80" as="geometry" />
        </mxCell>
        <mxCell id="T482StG7bbjqb7tH5dsQ-52" value="" style="html=1;verticalLabelPosition=bottom;align=center;labelBackgroundColor=#ffffff;verticalAlign=top;strokeWidth=2;strokeColor=#0080F0;shadow=0;dashed=0;shape=mxgraph.ios7.icons.printer;" vertex="1" parent="1">
          <mxGeometry x="920" y="1130" width="30" height="25.5" as="geometry" />
        </mxCell>
        <mxCell id="T482StG7bbjqb7tH5dsQ-53" value="" style="sketch=0;aspect=fixed;pointerEvents=1;shadow=0;dashed=0;html=1;strokeColor=none;labelPosition=center;verticalLabelPosition=bottom;verticalAlign=top;align=center;fillColor=#00188D;shape=mxgraph.azure.laptop" vertex="1" parent="1">
          <mxGeometry x="850" y="1155.5" width="50" height="30" as="geometry" />
        </mxCell>
        <mxCell id="T482StG7bbjqb7tH5dsQ-54" value="" style="sketch=0;aspect=fixed;pointerEvents=1;shadow=0;dashed=0;html=1;strokeColor=none;labelPosition=center;verticalLabelPosition=bottom;verticalAlign=top;align=center;fillColor=#00188D;shape=mxgraph.azure.laptop" vertex="1" parent="1">
          <mxGeometry x="1010" y="1155.5" width="50" height="30" as="geometry" />
        </mxCell>
        <mxCell id="T482StG7bbjqb7tH5dsQ-55" value="" style="sketch=0;aspect=fixed;pointerEvents=1;shadow=0;dashed=0;html=1;strokeColor=none;labelPosition=center;verticalLabelPosition=bottom;verticalAlign=top;align=center;fillColor=#00188D;shape=mxgraph.azure.laptop" vertex="1" parent="1">
          <mxGeometry x="1170" y="1155.5" width="50" height="30" as="geometry" />
        </mxCell>
        <mxCell id="T482StG7bbjqb7tH5dsQ-56" value="" style="sketch=0;aspect=fixed;pointerEvents=1;shadow=0;dashed=0;html=1;strokeColor=none;labelPosition=center;verticalLabelPosition=bottom;verticalAlign=top;align=center;fillColor=#00188D;shape=mxgraph.azure.laptop" vertex="1" parent="1">
          <mxGeometry x="1330" y="1155.5" width="50" height="30" as="geometry" />
        </mxCell>
        <mxCell id="T482StG7bbjqb7tH5dsQ-57" value="" style="sketch=0;aspect=fixed;pointerEvents=1;shadow=0;dashed=0;html=1;strokeColor=none;labelPosition=center;verticalLabelPosition=bottom;verticalAlign=top;align=center;fillColor=#00188D;shape=mxgraph.azure.laptop" vertex="1" parent="1">
          <mxGeometry x="1495" y="1155.5" width="50" height="30" as="geometry" />
        </mxCell>
        <mxCell id="T482StG7bbjqb7tH5dsQ-58" value="" style="sketch=0;aspect=fixed;pointerEvents=1;shadow=0;dashed=0;html=1;strokeColor=none;labelPosition=center;verticalLabelPosition=bottom;verticalAlign=top;align=center;fillColor=#00188D;shape=mxgraph.azure.laptop" vertex="1" parent="1">
          <mxGeometry x="1655" y="1155.5" width="50" height="30" as="geometry" />
        </mxCell>
        <mxCell id="T482StG7bbjqb7tH5dsQ-59" value="" style="sketch=0;aspect=fixed;pointerEvents=1;shadow=0;dashed=0;html=1;strokeColor=none;labelPosition=center;verticalLabelPosition=bottom;verticalAlign=top;align=center;fillColor=#00188D;shape=mxgraph.azure.laptop" vertex="1" parent="1">
          <mxGeometry x="1815" y="1155.5" width="50" height="30" as="geometry" />
        </mxCell>
        <mxCell id="T482StG7bbjqb7tH5dsQ-60" value="" style="sketch=0;aspect=fixed;pointerEvents=1;shadow=0;dashed=0;html=1;strokeColor=none;labelPosition=center;verticalLabelPosition=bottom;verticalAlign=top;align=center;fillColor=#00188D;shape=mxgraph.azure.laptop" vertex="1" parent="1">
          <mxGeometry x="1975" y="1155.5" width="50" height="30" as="geometry" />
        </mxCell>
        <mxCell id="T482StG7bbjqb7tH5dsQ-61" value="" style="sketch=0;aspect=fixed;pointerEvents=1;shadow=0;dashed=0;html=1;strokeColor=none;labelPosition=center;verticalLabelPosition=bottom;verticalAlign=top;align=center;fillColor=#00188D;shape=mxgraph.azure.laptop" vertex="1" parent="1">
          <mxGeometry x="2130" y="1155.5" width="50" height="30" as="geometry" />
        </mxCell>
        <mxCell id="T482StG7bbjqb7tH5dsQ-62" value="" style="sketch=0;aspect=fixed;pointerEvents=1;shadow=0;dashed=0;html=1;strokeColor=none;labelPosition=center;verticalLabelPosition=bottom;verticalAlign=top;align=center;fillColor=#00188D;shape=mxgraph.azure.laptop" vertex="1" parent="1">
          <mxGeometry x="2295" y="1155.5" width="50" height="30" as="geometry" />
        </mxCell>
        <mxCell id="T482StG7bbjqb7tH5dsQ-63" value="" style="sketch=0;aspect=fixed;pointerEvents=1;shadow=0;dashed=0;html=1;strokeColor=none;labelPosition=center;verticalLabelPosition=bottom;verticalAlign=top;align=center;fillColor=#00188D;shape=mxgraph.azure.laptop" vertex="1" parent="1">
          <mxGeometry x="850" y="1070" width="50" height="30" as="geometry" />
        </mxCell>
        <mxCell id="T482StG7bbjqb7tH5dsQ-64" value="" style="sketch=0;aspect=fixed;pointerEvents=1;shadow=0;dashed=0;html=1;strokeColor=none;labelPosition=center;verticalLabelPosition=bottom;verticalAlign=top;align=center;fillColor=#00188D;shape=mxgraph.azure.laptop" vertex="1" parent="1">
          <mxGeometry x="1010" y="1070" width="50" height="30" as="geometry" />
        </mxCell>
        <mxCell id="T482StG7bbjqb7tH5dsQ-65" value="" style="sketch=0;aspect=fixed;pointerEvents=1;shadow=0;dashed=0;html=1;strokeColor=none;labelPosition=center;verticalLabelPosition=bottom;verticalAlign=top;align=center;fillColor=#00188D;shape=mxgraph.azure.laptop" vertex="1" parent="1">
          <mxGeometry x="1170" y="1070" width="50" height="30" as="geometry" />
        </mxCell>
        <mxCell id="T482StG7bbjqb7tH5dsQ-66" value="" style="sketch=0;aspect=fixed;pointerEvents=1;shadow=0;dashed=0;html=1;strokeColor=none;labelPosition=center;verticalLabelPosition=bottom;verticalAlign=top;align=center;fillColor=#00188D;shape=mxgraph.azure.laptop" vertex="1" parent="1">
          <mxGeometry x="1330" y="1070" width="50" height="30" as="geometry" />
        </mxCell>
        <mxCell id="T482StG7bbjqb7tH5dsQ-67" value="" style="sketch=0;aspect=fixed;pointerEvents=1;shadow=0;dashed=0;html=1;strokeColor=none;labelPosition=center;verticalLabelPosition=bottom;verticalAlign=top;align=center;fillColor=#00188D;shape=mxgraph.azure.laptop" vertex="1" parent="1">
          <mxGeometry x="1495" y="1070" width="50" height="30" as="geometry" />
        </mxCell>
        <mxCell id="T482StG7bbjqb7tH5dsQ-68" value="" style="sketch=0;aspect=fixed;pointerEvents=1;shadow=0;dashed=0;html=1;strokeColor=none;labelPosition=center;verticalLabelPosition=bottom;verticalAlign=top;align=center;fillColor=#00188D;shape=mxgraph.azure.laptop" vertex="1" parent="1">
          <mxGeometry x="1655" y="1070" width="50" height="30" as="geometry" />
        </mxCell>
        <mxCell id="T482StG7bbjqb7tH5dsQ-69" value="" style="sketch=0;aspect=fixed;pointerEvents=1;shadow=0;dashed=0;html=1;strokeColor=none;labelPosition=center;verticalLabelPosition=bottom;verticalAlign=top;align=center;fillColor=#00188D;shape=mxgraph.azure.laptop" vertex="1" parent="1">
          <mxGeometry x="1815" y="1070" width="50" height="30" as="geometry" />
        </mxCell>
        <mxCell id="T482StG7bbjqb7tH5dsQ-70" value="" style="sketch=0;aspect=fixed;pointerEvents=1;shadow=0;dashed=0;html=1;strokeColor=none;labelPosition=center;verticalLabelPosition=bottom;verticalAlign=top;align=center;fillColor=#00188D;shape=mxgraph.azure.laptop" vertex="1" parent="1">
          <mxGeometry x="1975" y="1070" width="50" height="30" as="geometry" />
        </mxCell>
        <mxCell id="T482StG7bbjqb7tH5dsQ-71" value="" style="sketch=0;aspect=fixed;pointerEvents=1;shadow=0;dashed=0;html=1;strokeColor=none;labelPosition=center;verticalLabelPosition=bottom;verticalAlign=top;align=center;fillColor=#00188D;shape=mxgraph.azure.laptop" vertex="1" parent="1">
          <mxGeometry x="2130" y="1070" width="50" height="30" as="geometry" />
        </mxCell>
        <mxCell id="T482StG7bbjqb7tH5dsQ-72" value="" style="sketch=0;aspect=fixed;pointerEvents=1;shadow=0;dashed=0;html=1;strokeColor=none;labelPosition=center;verticalLabelPosition=bottom;verticalAlign=top;align=center;fillColor=#00188D;shape=mxgraph.azure.laptop" vertex="1" parent="1">
          <mxGeometry x="2295" y="1070" width="50" height="30" as="geometry" />
        </mxCell>
        <mxCell id="T482StG7bbjqb7tH5dsQ-73" value="" style="sketch=0;aspect=fixed;pointerEvents=1;shadow=0;dashed=0;html=1;strokeColor=none;labelPosition=center;verticalLabelPosition=bottom;verticalAlign=top;align=center;fillColor=#00188D;shape=mxgraph.azure.laptop" vertex="1" parent="1">
          <mxGeometry x="850" y="825" width="50" height="30" as="geometry" />
        </mxCell>
        <mxCell id="T482StG7bbjqb7tH5dsQ-74" value="" style="sketch=0;aspect=fixed;pointerEvents=1;shadow=0;dashed=0;html=1;strokeColor=none;labelPosition=center;verticalLabelPosition=bottom;verticalAlign=top;align=center;fillColor=#00188D;shape=mxgraph.azure.laptop" vertex="1" parent="1">
          <mxGeometry x="1010" y="825" width="50" height="30" as="geometry" />
        </mxCell>
        <mxCell id="T482StG7bbjqb7tH5dsQ-75" value="" style="sketch=0;aspect=fixed;pointerEvents=1;shadow=0;dashed=0;html=1;strokeColor=none;labelPosition=center;verticalLabelPosition=bottom;verticalAlign=top;align=center;fillColor=#00188D;shape=mxgraph.azure.laptop" vertex="1" parent="1">
          <mxGeometry x="1170" y="825" width="50" height="30" as="geometry" />
        </mxCell>
        <mxCell id="T482StG7bbjqb7tH5dsQ-76" value="" style="sketch=0;aspect=fixed;pointerEvents=1;shadow=0;dashed=0;html=1;strokeColor=none;labelPosition=center;verticalLabelPosition=bottom;verticalAlign=top;align=center;fillColor=#00188D;shape=mxgraph.azure.laptop" vertex="1" parent="1">
          <mxGeometry x="1330" y="825" width="50" height="30" as="geometry" />
        </mxCell>
        <mxCell id="T482StG7bbjqb7tH5dsQ-77" value="" style="sketch=0;aspect=fixed;pointerEvents=1;shadow=0;dashed=0;html=1;strokeColor=none;labelPosition=center;verticalLabelPosition=bottom;verticalAlign=top;align=center;fillColor=#00188D;shape=mxgraph.azure.laptop" vertex="1" parent="1">
          <mxGeometry x="1495" y="825" width="50" height="30" as="geometry" />
        </mxCell>
        <mxCell id="T482StG7bbjqb7tH5dsQ-78" value="" style="sketch=0;aspect=fixed;pointerEvents=1;shadow=0;dashed=0;html=1;strokeColor=none;labelPosition=center;verticalLabelPosition=bottom;verticalAlign=top;align=center;fillColor=#00188D;shape=mxgraph.azure.laptop" vertex="1" parent="1">
          <mxGeometry x="1655" y="825" width="50" height="30" as="geometry" />
        </mxCell>
        <mxCell id="T482StG7bbjqb7tH5dsQ-79" value="" style="sketch=0;aspect=fixed;pointerEvents=1;shadow=0;dashed=0;html=1;strokeColor=none;labelPosition=center;verticalLabelPosition=bottom;verticalAlign=top;align=center;fillColor=#00188D;shape=mxgraph.azure.laptop" vertex="1" parent="1">
          <mxGeometry x="1815" y="825" width="50" height="30" as="geometry" />
        </mxCell>
        <mxCell id="T482StG7bbjqb7tH5dsQ-80" value="" style="sketch=0;aspect=fixed;pointerEvents=1;shadow=0;dashed=0;html=1;strokeColor=none;labelPosition=center;verticalLabelPosition=bottom;verticalAlign=top;align=center;fillColor=#00188D;shape=mxgraph.azure.laptop" vertex="1" parent="1">
          <mxGeometry x="1975" y="825" width="50" height="30" as="geometry" />
        </mxCell>
        <mxCell id="T482StG7bbjqb7tH5dsQ-81" value="" style="sketch=0;aspect=fixed;pointerEvents=1;shadow=0;dashed=0;html=1;strokeColor=none;labelPosition=center;verticalLabelPosition=bottom;verticalAlign=top;align=center;fillColor=#00188D;shape=mxgraph.azure.laptop" vertex="1" parent="1">
          <mxGeometry x="2130" y="825" width="50" height="30" as="geometry" />
        </mxCell>
        <mxCell id="T482StG7bbjqb7tH5dsQ-82" value="" style="sketch=0;aspect=fixed;pointerEvents=1;shadow=0;dashed=0;html=1;strokeColor=none;labelPosition=center;verticalLabelPosition=bottom;verticalAlign=top;align=center;fillColor=#00188D;shape=mxgraph.azure.laptop" vertex="1" parent="1">
          <mxGeometry x="2295" y="825" width="50" height="30" as="geometry" />
        </mxCell>
        <mxCell id="T482StG7bbjqb7tH5dsQ-83" value="" style="sketch=0;aspect=fixed;pointerEvents=1;shadow=0;dashed=0;html=1;strokeColor=none;labelPosition=center;verticalLabelPosition=bottom;verticalAlign=top;align=center;fillColor=#00188D;shape=mxgraph.azure.laptop" vertex="1" parent="1">
          <mxGeometry x="850" y="750" width="50" height="30" as="geometry" />
        </mxCell>
        <mxCell id="T482StG7bbjqb7tH5dsQ-84" value="" style="sketch=0;aspect=fixed;pointerEvents=1;shadow=0;dashed=0;html=1;strokeColor=none;labelPosition=center;verticalLabelPosition=bottom;verticalAlign=top;align=center;fillColor=#00188D;shape=mxgraph.azure.laptop" vertex="1" parent="1">
          <mxGeometry x="1010" y="750" width="50" height="30" as="geometry" />
        </mxCell>
        <mxCell id="T482StG7bbjqb7tH5dsQ-85" value="" style="sketch=0;aspect=fixed;pointerEvents=1;shadow=0;dashed=0;html=1;strokeColor=none;labelPosition=center;verticalLabelPosition=bottom;verticalAlign=top;align=center;fillColor=#00188D;shape=mxgraph.azure.laptop" vertex="1" parent="1">
          <mxGeometry x="1170" y="750" width="50" height="30" as="geometry" />
        </mxCell>
        <mxCell id="T482StG7bbjqb7tH5dsQ-86" value="" style="sketch=0;aspect=fixed;pointerEvents=1;shadow=0;dashed=0;html=1;strokeColor=none;labelPosition=center;verticalLabelPosition=bottom;verticalAlign=top;align=center;fillColor=#00188D;shape=mxgraph.azure.laptop" vertex="1" parent="1">
          <mxGeometry x="1330" y="750" width="50" height="30" as="geometry" />
        </mxCell>
        <mxCell id="T482StG7bbjqb7tH5dsQ-87" value="" style="sketch=0;aspect=fixed;pointerEvents=1;shadow=0;dashed=0;html=1;strokeColor=none;labelPosition=center;verticalLabelPosition=bottom;verticalAlign=top;align=center;fillColor=#00188D;shape=mxgraph.azure.laptop" vertex="1" parent="1">
          <mxGeometry x="1495" y="750" width="50" height="30" as="geometry" />
        </mxCell>
        <mxCell id="T482StG7bbjqb7tH5dsQ-88" value="" style="sketch=0;aspect=fixed;pointerEvents=1;shadow=0;dashed=0;html=1;strokeColor=none;labelPosition=center;verticalLabelPosition=bottom;verticalAlign=top;align=center;fillColor=#00188D;shape=mxgraph.azure.laptop" vertex="1" parent="1">
          <mxGeometry x="1655" y="750" width="50" height="30" as="geometry" />
        </mxCell>
        <mxCell id="T482StG7bbjqb7tH5dsQ-89" value="" style="sketch=0;aspect=fixed;pointerEvents=1;shadow=0;dashed=0;html=1;strokeColor=none;labelPosition=center;verticalLabelPosition=bottom;verticalAlign=top;align=center;fillColor=#00188D;shape=mxgraph.azure.laptop" vertex="1" parent="1">
          <mxGeometry x="1815" y="750" width="50" height="30" as="geometry" />
        </mxCell>
        <mxCell id="T482StG7bbjqb7tH5dsQ-90" value="" style="sketch=0;aspect=fixed;pointerEvents=1;shadow=0;dashed=0;html=1;strokeColor=none;labelPosition=center;verticalLabelPosition=bottom;verticalAlign=top;align=center;fillColor=#00188D;shape=mxgraph.azure.laptop" vertex="1" parent="1">
          <mxGeometry x="1975" y="750" width="50" height="30" as="geometry" />
        </mxCell>
        <mxCell id="T482StG7bbjqb7tH5dsQ-91" value="" style="sketch=0;aspect=fixed;pointerEvents=1;shadow=0;dashed=0;html=1;strokeColor=none;labelPosition=center;verticalLabelPosition=bottom;verticalAlign=top;align=center;fillColor=#00188D;shape=mxgraph.azure.laptop" vertex="1" parent="1">
          <mxGeometry x="2130" y="750" width="50" height="30" as="geometry" />
        </mxCell>
        <mxCell id="T482StG7bbjqb7tH5dsQ-92" value="" style="sketch=0;aspect=fixed;pointerEvents=1;shadow=0;dashed=0;html=1;strokeColor=none;labelPosition=center;verticalLabelPosition=bottom;verticalAlign=top;align=center;fillColor=#00188D;shape=mxgraph.azure.laptop" vertex="1" parent="1">
          <mxGeometry x="2295" y="750" width="50" height="30" as="geometry" />
        </mxCell>
        <mxCell id="T482StG7bbjqb7tH5dsQ-103" value="" style="sketch=0;aspect=fixed;pointerEvents=1;shadow=0;dashed=0;html=1;strokeColor=none;labelPosition=center;verticalLabelPosition=bottom;verticalAlign=top;align=center;fillColor=#00188D;shape=mxgraph.azure.laptop" vertex="1" parent="1">
          <mxGeometry x="850" y="505" width="50" height="30" as="geometry" />
        </mxCell>
        <mxCell id="T482StG7bbjqb7tH5dsQ-104" value="" style="sketch=0;aspect=fixed;pointerEvents=1;shadow=0;dashed=0;html=1;strokeColor=none;labelPosition=center;verticalLabelPosition=bottom;verticalAlign=top;align=center;fillColor=#00188D;shape=mxgraph.azure.laptop" vertex="1" parent="1">
          <mxGeometry x="1010" y="505" width="50" height="30" as="geometry" />
        </mxCell>
        <mxCell id="T482StG7bbjqb7tH5dsQ-105" value="" style="sketch=0;aspect=fixed;pointerEvents=1;shadow=0;dashed=0;html=1;strokeColor=none;labelPosition=center;verticalLabelPosition=bottom;verticalAlign=top;align=center;fillColor=#00188D;shape=mxgraph.azure.laptop" vertex="1" parent="1">
          <mxGeometry x="1170" y="505" width="50" height="30" as="geometry" />
        </mxCell>
        <mxCell id="T482StG7bbjqb7tH5dsQ-106" value="" style="sketch=0;aspect=fixed;pointerEvents=1;shadow=0;dashed=0;html=1;strokeColor=none;labelPosition=center;verticalLabelPosition=bottom;verticalAlign=top;align=center;fillColor=#00188D;shape=mxgraph.azure.laptop" vertex="1" parent="1">
          <mxGeometry x="1330" y="505" width="50" height="30" as="geometry" />
        </mxCell>
        <mxCell id="T482StG7bbjqb7tH5dsQ-107" value="" style="sketch=0;aspect=fixed;pointerEvents=1;shadow=0;dashed=0;html=1;strokeColor=none;labelPosition=center;verticalLabelPosition=bottom;verticalAlign=top;align=center;fillColor=#00188D;shape=mxgraph.azure.laptop" vertex="1" parent="1">
          <mxGeometry x="1495" y="505" width="50" height="30" as="geometry" />
        </mxCell>
        <mxCell id="T482StG7bbjqb7tH5dsQ-108" value="" style="sketch=0;aspect=fixed;pointerEvents=1;shadow=0;dashed=0;html=1;strokeColor=none;labelPosition=center;verticalLabelPosition=bottom;verticalAlign=top;align=center;fillColor=#00188D;shape=mxgraph.azure.laptop" vertex="1" parent="1">
          <mxGeometry x="1655" y="505" width="50" height="30" as="geometry" />
        </mxCell>
        <mxCell id="T482StG7bbjqb7tH5dsQ-109" value="" style="sketch=0;aspect=fixed;pointerEvents=1;shadow=0;dashed=0;html=1;strokeColor=none;labelPosition=center;verticalLabelPosition=bottom;verticalAlign=top;align=center;fillColor=#00188D;shape=mxgraph.azure.laptop" vertex="1" parent="1">
          <mxGeometry x="1815" y="505" width="50" height="30" as="geometry" />
        </mxCell>
        <mxCell id="T482StG7bbjqb7tH5dsQ-110" value="" style="sketch=0;aspect=fixed;pointerEvents=1;shadow=0;dashed=0;html=1;strokeColor=none;labelPosition=center;verticalLabelPosition=bottom;verticalAlign=top;align=center;fillColor=#00188D;shape=mxgraph.azure.laptop" vertex="1" parent="1">
          <mxGeometry x="1975" y="505" width="50" height="30" as="geometry" />
        </mxCell>
        <mxCell id="T482StG7bbjqb7tH5dsQ-111" value="" style="sketch=0;aspect=fixed;pointerEvents=1;shadow=0;dashed=0;html=1;strokeColor=none;labelPosition=center;verticalLabelPosition=bottom;verticalAlign=top;align=center;fillColor=#00188D;shape=mxgraph.azure.laptop" vertex="1" parent="1">
          <mxGeometry x="2130" y="505" width="50" height="30" as="geometry" />
        </mxCell>
        <mxCell id="T482StG7bbjqb7tH5dsQ-112" value="" style="sketch=0;aspect=fixed;pointerEvents=1;shadow=0;dashed=0;html=1;strokeColor=none;labelPosition=center;verticalLabelPosition=bottom;verticalAlign=top;align=center;fillColor=#00188D;shape=mxgraph.azure.laptop" vertex="1" parent="1">
          <mxGeometry x="2295" y="505" width="50" height="30" as="geometry" />
        </mxCell>
      </root>
    </mxGraphModel>
  </diagram>
</mxfile>
